<?xml version="1.0"?>
<svg xmlns="http://www.w3.org/2000/svg" id="Layer_5" enable-background="new 0 0 64 64" height="512px" viewBox="0 0 64 64" width="512px"><g><g><path d="m61.879 26.386c.712-.578 1.121-1.436 1.121-2.353 0-1.673-1.36-3.033-3.033-3.033h-15.277c-.908 0-1.787-.266-2.542-.77-.843-.562-1.484-1.401-1.805-2.364l-4.762-14.284c-.514-1.544-1.953-2.582-3.581-2.582s-3.067 1.038-3.581 2.581l-4.762 14.286c-.321.962-.962 1.802-1.805 2.364-.756.503-1.635.769-2.542.769h-15.277c-1.673 0-3.033 1.36-3.033 3.033 0 .917.409 1.775 1.121 2.353l14.194 11.534c.435.353.685.878.685 1.438 0 .272-.062.547-.179.794l-8.51 17.966c-.204.429-.311.908-.311 1.384v.265c0 1.783 1.451 3.233 3.233 3.233.715 0 1.42-.242 1.985-.682l15.817-12.302c1.686-1.311 4.243-1.311 5.929 0l15.817 12.303c.566.439 1.271.681 1.986.681 1.782 0 3.233-1.45 3.233-3.233v-.265c0-.476-.107-.955-.311-1.384l-8.511-17.967c-.116-.246-.178-.52-.178-.793 0-.561.25-1.085.685-1.438zm-16.508 14.622 8.51 17.966c.078.164.119.346.119.528v.265c0 .679-.553 1.233-1.233 1.233-.273 0-.542-.093-.758-.26l-15.817-12.302c-2.384-1.855-6.001-1.855-8.385 0l-15.816 12.301c-.216.168-.485.261-.758.261-.68 0-1.233-.554-1.233-1.233v-.265c0-.182.041-.364.119-.528l8.51-17.965c.243-.513.371-1.083.371-1.651 0-1.166-.519-2.256-1.424-2.991l-14.195-11.534c-.242-.196-.381-.488-.381-.8 0-.57.463-1.033 1.033-1.033h15.277c1.304 0 2.566-.382 3.651-1.105 1.211-.807 2.132-2.013 2.593-3.395l4.762-14.286c.242-.726.919-1.214 1.684-1.214s1.442.488 1.684 1.214l4.762 14.286c.461 1.382 1.382 2.588 2.593 3.395 1.085.723 2.347 1.105 3.651 1.105h15.277c.57 0 1.033.463 1.033 1.033 0 .312-.139.604-.381.801l-14.196 11.533c-.904.736-1.423 1.825-1.423 2.991 0 .568.128 1.138.371 1.65z" data-original="#000000" class="active-path" data-old_color="#000000" fill="#ECE1DE"/><path d="m31 9h2v2h-2z" data-original="#000000" class="active-path" data-old_color="#000000" fill="#ECE1DE"/><path d="m31 13h2v2h-2z" data-original="#000000" class="active-path" data-old_color="#000000" fill="#ECE1DE"/><path d="m31 17h2v2h-2z" data-original="#000000" class="active-path" data-old_color="#000000" fill="#ECE1DE"/><path d="m31 21h2v2h-2z" data-original="#000000" class="active-path" data-old_color="#000000" fill="#ECE1DE"/><path d="m31 25h2v2h-2z" data-original="#000000" class="active-path" data-old_color="#000000" fill="#ECE1DE"/><path d="m31 5h2v2h-2z" data-original="#000000" class="active-path" data-old_color="#000000" fill="#ECE1DE"/><path d="m20.538 28.601h2v2h-2z" transform="matrix(.309 -.951 .951 .309 -13.27 40.937)" data-original="#000000" class="active-path" data-old_color="#000000" fill="#ECE1DE"/><path d="m16.734 27.365h2v2h-2z" transform="matrix(.309 -.951 .951 .309 -14.723 36.465)" data-original="#000000" class="active-path" data-old_color="#000000" fill="#ECE1DE"/><path d="m9.126 24.892h2v2h-2z" transform="matrix(.309 -.951 .951 .309 -17.629 27.521)" data-original="#000000" class="active-path" data-old_color="#000000" fill="#ECE1DE"/><path d="m5.322 23.657h2v2h-2z" transform="matrix(.309 -.951 .951 .309 -19.082 23.049)" data-original="#000000" class="active-path" data-old_color="#000000" fill="#ECE1DE"/><path d="m24.342 29.837h2v2h-2z" transform="matrix(.309 -.951 .951 .309 -11.818 45.406)" data-original="#000000" class="active-path" data-old_color="#000000" fill="#ECE1DE"/><path d="m12.93 26.129h2v2h-2z" transform="matrix(.309 -.951 .951 .309 -16.176 31.993)" data-original="#000000" class="active-path" data-old_color="#000000" fill="#ECE1DE"/><path d="m18.612 47.964h2v2.001h-2z" transform="matrix(.624 -.782 .782 .624 -30.891 33.745)" data-original="#000000" class="active-path" data-old_color="#000000" fill="#ECE1DE"/><path d="m16.118 51.091h2v2.001h-2z" transform="matrix(.624 -.782 .782 .624 -34.273 32.972)" data-original="#000000" class="active-path" data-old_color="#000000" fill="#ECE1DE"/><path d="m13.624 54.218h2v2.001h-2z" transform="matrix(.624 -.782 .782 .624 -37.655 32.199)" data-original="#000000" class="active-path" data-old_color="#000000" fill="#ECE1DE"/><path d="m26.095 38.582h2v2.001h-2z" transform="matrix(.624 -.782 .782 .624 -20.744 36.064)" data-original="#000000" class="active-path" data-old_color="#000000" fill="#ECE1DE"/><path d="m23.601 41.709h2v2.001h-2z" transform="matrix(.624 -.782 .782 .624 -24.126 35.291)" data-original="#000000" class="active-path" data-old_color="#000000" fill="#ECE1DE"/><path d="m21.106 44.837h2.001v1.999h-2.001z" transform="matrix(.623 -.782 .782 .623 -27.517 34.556)" data-original="#000000" class="active-path" data-old_color="#000000" fill="#ECE1DE"/><path d="m40.894 44.837h1.999v2.001h-1.999z" transform="matrix(.782 -.623 .623 .782 -19.436 36.103)" data-original="#000000" class="active-path" data-old_color="#000000" fill="#ECE1DE"/><path d="m45.882 51.091h2.001v2h-2.001z" transform="matrix(.782 -.624 .624 .782 -22.256 40.628)" data-original="#000000" class="active-path" data-old_color="#000000" fill="#ECE1DE"/><path d="m48.376 54.218h2.001v2h-2.001z" transform="matrix(.782 -.624 .624 .782 -23.662 42.867)" data-original="#000000" class="active-path" data-old_color="#000000" fill="#ECE1DE"/><path d="m43.388 47.964h2.001v2h-2.001z" transform="matrix(.782 -.624 .624 .782 -20.846 38.364)" data-original="#000000" class="active-path" data-old_color="#000000" fill="#ECE1DE"/><path d="m35.905 38.583h2.001v2h-2.001z" transform="matrix(.782 -.624 .624 .782 -16.632 31.671)" data-original="#000000" class="active-path" data-old_color="#000000" fill="#ECE1DE"/><path d="m38.399 41.71h2.001v2h-2.001z" transform="matrix(.782 -.624 .624 .782 -18.037 33.91)" data-original="#000000" class="active-path" data-old_color="#000000" fill="#ECE1DE"/><path d="m45.265 27.365h2v2h-2z" transform="matrix(.951 -.309 .309 .951 -6.501 15.687)" data-original="#000000" class="active-path" data-old_color="#000000" fill="#ECE1DE"/><path d="m49.07 26.129h2v2h-2z" transform="matrix(.951 -.309 .309 .951 -5.933 16.802)" data-original="#000000" class="active-path" data-old_color="#000000" fill="#ECE1DE"/><path d="m52.874 24.892h2v2h-2z" transform="matrix(.951 -.309 .309 .951 -5.365 17.917)" data-original="#000000" class="active-path" data-old_color="#000000" fill="#ECE1DE"/><path d="m56.678 23.657h2v2h-2z" transform="matrix(.951 -.309 .309 .951 -4.797 19.032)" data-original="#000000" class="active-path" data-old_color="#000000" fill="#ECE1DE"/><path d="m41.461 28.601h2v2h-2z" transform="matrix(.951 -.309 .309 .951 -7.069 14.571)" data-original="#000000" class="active-path" data-old_color="#000000" fill="#ECE1DE"/><path d="m37.658 29.837h2v2h-2z" transform="matrix(.951 -.309 .309 .951 -7.638 13.456)" data-original="#000000" class="active-path" data-old_color="#000000" fill="#ECE1DE"/><path d="m32 29c-2.206 0-4 1.794-4 4s1.794 4 4 4 4-1.794 4-4-1.794-4-4-4zm0 6c-1.103 0-2-.897-2-2s.897-2 2-2 2 .897 2 2-.897 2-2 2z" data-original="#000000" class="active-path" data-old_color="#000000" fill="#ECE1DE"/></g></g> </svg>
